HIERARCHY
ROOT pelvis
{
	OFFSET 0.000000 0.000000 0.860057
	CHANNELS 6 Xposition Yposition Zposition Xrotation Yrotation Zrotation
	JOINT spine
	{
		OFFSET 0.000000 0.000000 0.000000
		CHANNELS 6 Xposition Yposition Zposition Xrotation Yrotation Zrotation
		JOINT spine.001
		{
			OFFSET 0.000000 -0.013660 0.260655
			CHANNELS 3 Xrotation Yrotation Zrotation
			JOINT neck
			{
				OFFSET 0.000000 0.031809 0.259067
				CHANNELS 6 Xposition Yposition Zposition Xrotation Yrotation Zrotation
				JOINT face
				{
					OFFSET 0.000000 0.003755 0.215098
					CHANNELS 6 Xposition Yposition Zposition Xrotation Yrotation Zrotation
					End Site
					{
						OFFSET 0.000000 -0.032339 -0.008359
					}
				}
			}
			JOINT shoulder.L
			{
				OFFSET 0.000000 0.031809 0.259067
				CHANNELS 6 Xposition Yposition Zposition Yrotation Xrotation Zrotation
				JOINT upper_arm.L
				{
					OFFSET 0.165174 0.000000 0.000000
					CHANNELS 6 Xposition Yposition Zposition Xrotation Yrotation Zrotation
					JOINT forearm.L
					{
						OFFSET 0.286643 0.000125 0.001034
						CHANNELS 6 Xposition Yposition Zposition Xrotation Yrotation Zrotation
						End Site
						{
							OFFSET 0.240020 -0.004075 -0.001423
						}
					}
				}
			}
			JOINT shoulder.R
			{
				OFFSET 0.000000 0.031809 0.259067
				CHANNELS 6 Xposition Yposition Zposition Yrotation Xrotation Zrotation
				JOINT upper_arm.R
				{
					OFFSET -0.165174 0.000000 0.000000
					CHANNELS 6 Xposition Yposition Zposition Xrotation Yrotation Zrotation
					JOINT forearm.R
					{
						OFFSET -0.289110 0.000125 0.001034
						CHANNELS 6 Xposition Yposition Zposition Xrotation Yrotation Zrotation
						End Site
						{
							OFFSET -0.238651 -0.004051 -0.001423
						}
					}
				}
			}
		}
	}
	JOINT pelvis.L
	{
		OFFSET 0.000000 0.000000 0.000000
		CHANNELS 6 Xposition Yposition Zposition Yrotation Xrotation Zrotation
		End Site
		{
			OFFSET 0.104399 0.000000 0.000000
		}
	}
	JOINT pelvis.R
	{
		OFFSET 0.000000 0.000000 0.000000
		CHANNELS 6 Xposition Yposition Zposition Yrotation Xrotation Zrotation
		End Site
		{
			OFFSET -0.104399 0.000000 0.000000
		}
	}
	JOINT thigh.L
	{
		OFFSET 0.104399 0.000000 0.000000
		CHANNELS 6 Xposition Yposition Zposition Xrotation Yrotation Zrotation
		JOINT shin.L
		{
			OFFSET 0.021308 0.000000 -0.406588
			CHANNELS 6 Xposition Yposition Zposition Xrotation Yrotation Zrotation
			JOINT foot.L
			{
				OFFSET 0.019716 0.000000 -0.376210
				CHANNELS 3 Xrotation Yrotation Zrotation
				End Site
				{
					OFFSET 0.016962 -0.172945 -0.072623
				}
			}
			JOINT heel.02.L
			{
				OFFSET 0.019716 0.000000 -0.376210
				CHANNELS 3 Xrotation Yrotation Zrotation
				End Site
				{
					OFFSET 0.092026 0.037199 -0.071467
				}
			}
		}
	}
	JOINT thigh.R
	{
		OFFSET -0.104399 0.000000 0.000000
		CHANNELS 6 Xposition Yposition Zposition Xrotation Yrotation Zrotation
		JOINT shin.R
		{
			OFFSET -0.021045 0.000000 -0.401565
			CHANNELS 6 Xposition Yposition Zposition Xrotation Yrotation Zrotation
			JOINT foot.R
			{
				OFFSET -0.020371 0.000000 -0.388707
				CHANNELS 3 Xrotation Yrotation Zrotation
				End Site
				{
					OFFSET -0.016433 -0.167551 -0.070357
				}
			}
			JOINT heel.02.R
			{
				OFFSET -0.020371 0.000000 -0.388707
				CHANNELS 3 Xrotation Yrotation Zrotation
				End Site
				{
					OFFSET -0.096496 0.037199 -0.063737
				}
			}
		}
	}
}
MOTION
Frames: 4
Frame Time: 0.041667
-0.010250 -0.024824 0.850233 -0.000000 0.000000 -1.923826 0.000000 0.000000 -0.000000 -5.856549 1.170639 0.121562 9.962202 0.727204 5.933392 -0.000000 0.031809 0.259067 12.538589 -0.177995 -2.958476 0.000000 0.003755 0.215098 -1.890048 -0.000000 -0.000000 -0.000000 0.031809 0.259067 -1.680427 0.003024 0.206234 0.165174 -0.000000 -0.000000 17.494247 83.311205 -19.659156 0.286643 0.000125 0.001034 1.227187 8.678570 -15.294255 -0.000000 0.031809 0.259067 -1.624604 0.002827 0.199388 -0.165175 -0.000000 -0.000000 25.614304 -75.126063 32.923872 -0.289110 0.000125 0.001034 0.437440 -6.221970 6.835144 0.000000 0.000000 0.000000 1.584480 -0.000001 0.000039 0.000000 0.000000 0.000000 1.584481 -0.000000 0.000000 0.104359 0.000000 -0.002887 7.708228 5.052979 0.064098 0.021308 0.000000 -0.406588 -1.894418 -9.703911 -0.258962 -3.373735 3.248441 -7.914442 -12.609239 45.375207 33.469706 -0.104359 -0.000000 0.002887 10.578138 -3.995320 -0.186282 -0.021045 -0.000000 -0.401565 -9.936863 2.226035 0.714881 1.501978 -1.099228 2.360014 -11.509873 -42.413590 -35.426091 
-0.009979 -0.024061 0.848746 -0.000000 0.000000 -1.857910 -0.000000 -0.000000 -0.000000 -5.873611 1.102201 0.114621 9.950982 0.828910 6.767089 0.000000 0.031809 0.259067 12.604158 -0.346341 -2.825622 0.000000 0.003755 0.215098 -1.747608 0.000000 0.000003 0.000000 0.031809 0.259067 -1.826231 0.003572 0.224106 0.165174 -0.000000 0.000000 21.948314 83.283714 -24.635154 0.286643 0.000125 0.001034 1.157436 8.401677 -14.895934 0.000000 0.031809 0.259067 -1.770445 0.003358 0.217297 -0.165175 -0.000000 -0.000000 24.062041 -75.183212 30.940986 -0.289110 0.000125 0.001034 0.448654 -6.228480 7.054858 0.000000 -0.000000 0.000000 1.844461 0.000001 -0.000086 0.000000 -0.000000 0.000000 1.844526 -0.000000 0.000000 0.104345 -0.000000 -0.003360 7.336664 4.958113 0.067103 0.021308 -0.000000 -0.406588 -1.298905 -9.689615 -0.177387 -3.495214 3.171084 -7.747963 -13.438448 46.317053 34.741115 -0.104345 0.000000 0.003360 10.648125 -3.849427 -0.201144 -0.021045 -0.000000 -0.401565 -10.069259 2.122300 0.715357 1.055303 -1.378317 3.125272 -12.540247 -43.457475 -36.622597 
-0.010303 -0.023067 0.847462 -0.000000 0.000000 -1.633753 0.000000 -0.000000 0.000000 -5.802110 1.091865 0.112857 9.941278 0.906347 7.402740 0.000000 0.031809 0.259067 12.520264 -0.581943 -2.464458 -0.000000 0.003755 0.215098 -1.344550 0.000000 -0.000001 0.000000 0.031809 0.259067 -1.975504 0.004181 0.242464 0.165174 0.000000 -0.000000 25.356063 83.235670 -28.445513 0.286643 0.000125 0.001034 1.115781 8.174469 -14.779218 0.000000 0.031809 0.259067 -1.919682 0.003948 0.235597 -0.165175 0.000000 -0.000000 22.626269 -75.144041 29.149577 -0.289110 0.000125 0.001034 0.472183 -6.414471 7.230148 0.000000 -0.000000 0.000000 1.939346 0.000000 -0.000010 0.000000 -0.000000 0.000000 1.939346 -0.000000 0.000000 0.104339 -0.000000 -0.003533 6.766741 4.820887 0.070020 0.021308 0.000000 -0.406588 -0.397277 -9.669923 -0.054185 -3.695039 3.218613 -7.860880 -14.038311 46.885871 35.418776 -0.104339 -0.000000 0.003533 10.676074 -3.806332 -0.205711 -0.021045 -0.000000 -0.401565 -10.114323 2.099137 0.716534 0.687820 -1.524434 3.539515 -13.440058 -44.282019 -37.511413 
-0.011089 -0.021871 0.846292 -0.000000 0.000000 -1.233705 0.000000 0.000000 -0.000000 -5.638483 1.105198 0.112641 9.933745 0.962256 7.862259 -0.000000 0.031809 0.259067 12.327704 -0.814103 -1.969751 0.000000 0.003755 0.215098 -0.865375 0.000000 -0.000000 0.000000 0.031809 0.259067 -2.106403 0.004752 0.258498 0.165174 0.000000 -0.000000 27.649676 83.160620 -31.028159 0.286643 0.000125 0.001034 1.109611 8.082799 -14.890791 -0.000000 0.031809 0.259067 -2.050580 0.004504 0.251645 -0.165175 0.000000 -0.000000 21.476871 -74.998503 27.764200 -0.289110 0.000125 0.001034 0.506437 -6.806559 7.279740 0.000000 -0.000000 -0.000000 1.855066 0.000001 -0.000068 0.000000 -0.000000 -0.000000 1.855033 -0.000000 0.000000 0.104344 0.000000 -0.003380 5.942480 4.638725 0.070960 0.021308 -0.000000 -0.406588 0.927363 -9.579661 0.125758 -4.024411 3.368409 -8.200926 -14.441060 47.136754 35.502664 -0.104344 0.000000 0.003379 10.697825 -3.852354 -0.201814 -0.021045 -0.000000 -0.401565 -10.141613 2.126509 0.720896 0.458208 -1.518432 3.559052 -14.126881 -44.855119 -38.056417 
